<svg xmlns="http://www.w3.org/2000/svg" version="1.1" xmlns:xlink="http://www.w3.org/1999/xlink" width="512" height="512" x="0" y="0" viewBox="0 0 512 512" style="enable-background:new 0 0 512 512" xml:space="preserve"><g><path fill="#cce4ff" fill-rule="evenodd" d="M269.394 287.337h169.073c40.167 0 73.033 32.866 73.033 73.033v73.033H196.331V360.37c0-40.166 32.867-73.033 73.063-73.033z" clip-rule="evenodd" opacity="1" data-original="#cce4ff"></path><path fill="#9dc6fb" fill-rule="evenodd" d="m279.574 287.337 43.424 32.925 30.918-32.925-39.527-28.183z" clip-rule="evenodd" opacity="1" data-original="#9dc6fb"></path><path fill="#9dc6fb" fill-rule="evenodd" d="m428.258 287.337-43.425 32.925-30.917-32.925 39.527-28.183z" clip-rule="evenodd" opacity="1" data-original="#9dc6fb"></path><path fill="#fd4755" fill-rule="evenodd" d="m368.72 433.404 12.012-22.832-5.119-41.243-5.119-41.243h-33.128l-5.119 41.243-5.119 41.243 11.983 22.832z" clip-rule="evenodd" opacity="1" data-original="#fd4755"></path><path fill="#e41f2d" fill-rule="evenodd" d="M353.916 328.086h16.578l4.072-18.76-20.65-21.989-20.651 21.989 4.101 18.76z" clip-rule="evenodd" opacity="1" data-original="#e41f2d"></path><path fill="#64b9fc" fill-rule="evenodd" d="M271.604 163.841h-13.438c-15.27 0-27.747 12.478-27.747 27.747v1.396c0 15.27 12.478 27.747 27.747 27.747h196.413c15.27 0 27.777-12.478 27.777-27.747v-1.396c0-15.27-12.507-27.747-27.777-27.747h-13.437z" clip-rule="evenodd" opacity="1" data-original="#64b9fc"></path><path fill="#ffcebf" fill-rule="evenodd" d="M356.388 279.31c46.886 0 85.133-47.467 85.133-105.696 0-58.2-38.247-105.667-85.133-105.667-46.885 0-85.133 47.467-85.133 105.667 0 58.229 38.247 105.696 85.133 105.696z" clip-rule="evenodd" opacity="1" data-original="#ffcebf"></path><path fill="#407093" fill-rule="evenodd" d="M272.099 188.68c-73.644-58.694-14.95-167.59 88.158-162.529 64.453 3.17 118.901 42.086 106.714 113.229-6.108 25.595-15.124 41.738-26.439 50.376.524-48.311-10.616-75.942-24.083-91.037-15.328 17.509-35.251 28.707-61.05 31.849-63.464-8.93-88.972 12.244-83.3 58.112z" clip-rule="evenodd" opacity="1" data-original="#407093"></path><path fill="#99a8e5" d="M410.874 277.43c-15.325 0-30.402-8.543-42.16-24.131a7.185 7.185 0 0 1 11.471-8.653c10.236 13.571 22.612 19.996 34.831 18.093 15.777-2.456 30.091-18.879 39.271-45.055a7.181 7.181 0 0 1 9.156-4.402 7.183 7.183 0 0 1 4.402 9.156c-11.151 31.797-29.128 51.151-50.618 54.498a41.095 41.095 0 0 1-6.353.494z" opacity="1" data-original="#99a8e5"></path><path fill="#407093" d="M362.991 220.383c-10.761 0-19.516 8.755-19.516 19.516s8.755 19.516 19.516 19.516 19.516-8.755 19.516-19.516-8.755-19.516-19.516-19.516z" opacity="1" data-original="#407093"></path><path fill="#9dc6fb" d="M253.746 440.588a7.184 7.184 0 0 1-7.184-7.184v-60.439a7.184 7.184 0 0 1 14.368 0v60.439a7.184 7.184 0 0 1-7.184 7.184zM454.086 440.588a7.184 7.184 0 0 1-7.184-7.184v-60.439a7.184 7.184 0 0 1 14.368 0v60.439a7.185 7.185 0 0 1-7.184 7.184z" opacity="1" data-original="#9dc6fb"></path><path fill="#99a8e5" fill-rule="evenodd" d="M.5 433.404h511v52.615H.5z" clip-rule="evenodd" opacity="1" data-original="#99a8e5"></path><path fill="#64b9fc" fill-rule="evenodd" d="M.5 238.823h227.447V381.05H.5z" clip-rule="evenodd" opacity="1" data-original="#64b9fc"></path><path fill="#31a7fb" fill-rule="evenodd" d="M95.929 346.264h36.589l18.295 87.14H77.634z" clip-rule="evenodd" opacity="1" data-original="#31a7fb"></path></g></svg>